<mxfile host="65bd71144e">
    <diagram id="-BOiNqC1fQwuW4cxSvHX" name="Page-1">
        <mxGraphModel dx="1631" dy="916" grid="1" gridSize="10" guides="1" tooltips="1" connect="1" arrows="1" fold="1" page="1" pageScale="1" pageWidth="1169" pageHeight="827" math="0" shadow="0">
            <root>
                <mxCell id="0"/>
                <mxCell id="1" parent="0"/>
                <mxCell id="2" value="Toolbar" style="rounded=0;whiteSpace=wrap;html=1;" vertex="1" parent="1">
                    <mxGeometry x="40" y="100" width="240" height="610" as="geometry"/>
                </mxCell>
                <mxCell id="3" value="Navigation" style="rounded=0;whiteSpace=wrap;html=1;" vertex="1" parent="1">
                    <mxGeometry x="280" y="100" width="840" height="60" as="geometry"/>
                </mxCell>
                <mxCell id="4" value="" style="rounded=0;whiteSpace=wrap;html=1;" vertex="1" parent="1">
                    <mxGeometry x="280" y="160" width="840" height="550" as="geometry"/>
                </mxCell>
                <mxCell id="5" value="Projects" style="text;html=1;align=center;verticalAlign=middle;resizable=0;points=[];autosize=1;strokeColor=none;fillColor=none;fontSize=18;" vertex="1" parent="1">
                    <mxGeometry x="295" y="185" width="90" height="40" as="geometry"/>
                </mxCell>
                <mxCell id="6" value="Create&lt;br style=&quot;font-size: 12px;&quot;&gt;Projects" style="rounded=1;whiteSpace=wrap;html=1;fontSize=12;" vertex="1" parent="1">
                    <mxGeometry x="1030" y="180" width="70" height="50" as="geometry"/>
                </mxCell>
                <mxCell id="7" value="" style="rounded=1;whiteSpace=wrap;html=1;fontSize=12;" vertex="1" parent="1">
                    <mxGeometry x="300" y="250" width="800" height="70" as="geometry"/>
                </mxCell>
                <mxCell id="8" value="Filters" style="rounded=1;whiteSpace=wrap;html=1;fontSize=12;" vertex="1" parent="1">
                    <mxGeometry x="320" y="270" width="70" height="30" as="geometry"/>
                </mxCell>
                <mxCell id="9" value="Search" style="rounded=1;whiteSpace=wrap;html=1;fontSize=12;" vertex="1" parent="1">
                    <mxGeometry x="1010" y="270" width="70" height="30" as="geometry"/>
                </mxCell>
                <mxCell id="10" value="" style="rounded=1;whiteSpace=wrap;html=1;fontSize=12;arcSize=2;" vertex="1" parent="1">
                    <mxGeometry x="300" y="340" width="800" height="350" as="geometry"/>
                </mxCell>
                <mxCell id="12" value="Project Key" style="text;html=1;align=left;verticalAlign=middle;resizable=0;points=[];autosize=1;strokeColor=none;fillColor=none;fontSize=12;" vertex="1" parent="1">
                    <mxGeometry x="320" y="350" width="80" height="30" as="geometry"/>
                </mxCell>
                <mxCell id="13" value="Name" style="text;html=1;align=left;verticalAlign=middle;resizable=0;points=[];autosize=1;strokeColor=none;fillColor=none;fontSize=12;" vertex="1" parent="1">
                    <mxGeometry x="560" y="350" width="60" height="30" as="geometry"/>
                </mxCell>
                <mxCell id="16" value="PROJECT_KEY" style="text;html=1;align=left;verticalAlign=middle;resizable=0;points=[];autosize=1;strokeColor=none;fillColor=none;fontSize=6;" vertex="1" parent="1">
                    <mxGeometry x="320" y="389" width="70" height="20" as="geometry"/>
                </mxCell>
                <mxCell id="17" value="Description" style="text;html=1;align=left;verticalAlign=middle;resizable=0;points=[];autosize=1;strokeColor=none;fillColor=none;fontSize=12;" vertex="1" parent="1">
                    <mxGeometry x="790" y="350" width="80" height="30" as="geometry"/>
                </mxCell>
                <mxCell id="18" value="PROJECT_DESCRIPTION" style="text;html=1;align=left;verticalAlign=middle;resizable=0;points=[];autosize=1;strokeColor=none;fillColor=none;fontSize=6;" vertex="1" parent="1">
                    <mxGeometry x="790" y="389" width="100" height="20" as="geometry"/>
                </mxCell>
                <mxCell id="32" value="PROJECT_KEY" style="text;html=1;align=left;verticalAlign=middle;resizable=0;points=[];autosize=1;strokeColor=none;fillColor=none;fontSize=6;" vertex="1" parent="1">
                    <mxGeometry x="320" y="439" width="70" height="20" as="geometry"/>
                </mxCell>
                <mxCell id="33" value="PROJECT_DESCRIPTION" style="text;html=1;align=left;verticalAlign=middle;resizable=0;points=[];autosize=1;strokeColor=none;fillColor=none;fontSize=6;" vertex="1" parent="1">
                    <mxGeometry x="790" y="439" width="100" height="20" as="geometry"/>
                </mxCell>
                <mxCell id="42" value="PROJECT_KEY" style="text;html=1;align=left;verticalAlign=middle;resizable=0;points=[];autosize=1;strokeColor=none;fillColor=none;fontSize=6;" vertex="1" parent="1">
                    <mxGeometry x="320" y="489" width="70" height="20" as="geometry"/>
                </mxCell>
                <mxCell id="43" value="PROJECT_DESCRIPTION" style="text;html=1;align=left;verticalAlign=middle;resizable=0;points=[];autosize=1;strokeColor=none;fillColor=none;fontSize=6;" vertex="1" parent="1">
                    <mxGeometry x="790" y="489" width="100" height="20" as="geometry"/>
                </mxCell>
                <mxCell id="52" value="PROJECT_KEY" style="text;html=1;align=left;verticalAlign=middle;resizable=0;points=[];autosize=1;strokeColor=none;fillColor=none;fontSize=6;" vertex="1" parent="1">
                    <mxGeometry x="320" y="539" width="70" height="20" as="geometry"/>
                </mxCell>
                <mxCell id="53" value="PROJECT_DESCRIPTION" style="text;html=1;align=left;verticalAlign=middle;resizable=0;points=[];autosize=1;strokeColor=none;fillColor=none;fontSize=6;" vertex="1" parent="1">
                    <mxGeometry x="790" y="539" width="100" height="20" as="geometry"/>
                </mxCell>
                <mxCell id="62" value="PROJECT_KEY" style="text;html=1;align=left;verticalAlign=middle;resizable=0;points=[];autosize=1;strokeColor=none;fillColor=none;fontSize=6;" vertex="1" parent="1">
                    <mxGeometry x="320" y="589" width="70" height="20" as="geometry"/>
                </mxCell>
                <mxCell id="63" value="PROJECT_DESCRIPTION" style="text;html=1;align=left;verticalAlign=middle;resizable=0;points=[];autosize=1;strokeColor=none;fillColor=none;fontSize=6;" vertex="1" parent="1">
                    <mxGeometry x="790" y="589" width="100" height="20" as="geometry"/>
                </mxCell>
                <mxCell id="72" value="PROJECT_KEY" style="text;html=1;align=left;verticalAlign=middle;resizable=0;points=[];autosize=1;strokeColor=none;fillColor=none;fontSize=6;" vertex="1" parent="1">
                    <mxGeometry x="320" y="639" width="70" height="20" as="geometry"/>
                </mxCell>
                <mxCell id="73" value="PROJECT_DESCRIPTION" style="text;html=1;align=left;verticalAlign=middle;resizable=0;points=[];autosize=1;strokeColor=none;fillColor=none;fontSize=6;" vertex="1" parent="1">
                    <mxGeometry x="790" y="639" width="100" height="20" as="geometry"/>
                </mxCell>
                <mxCell id="92" value="PROJECT_NAME" style="text;html=1;align=left;verticalAlign=middle;resizable=0;points=[];autosize=1;strokeColor=none;fillColor=none;fontSize=6;" vertex="1" parent="1">
                    <mxGeometry x="560" y="389" width="70" height="20" as="geometry"/>
                </mxCell>
                <mxCell id="93" value="PROJECT_NAME" style="text;html=1;align=left;verticalAlign=middle;resizable=0;points=[];autosize=1;strokeColor=none;fillColor=none;fontSize=6;" vertex="1" parent="1">
                    <mxGeometry x="560" y="439" width="70" height="20" as="geometry"/>
                </mxCell>
                <mxCell id="94" value="PROJECT_NAME" style="text;html=1;align=left;verticalAlign=middle;resizable=0;points=[];autosize=1;strokeColor=none;fillColor=none;fontSize=6;" vertex="1" parent="1">
                    <mxGeometry x="560" y="489" width="70" height="20" as="geometry"/>
                </mxCell>
                <mxCell id="95" value="PROJECT_NAME" style="text;html=1;align=left;verticalAlign=middle;resizable=0;points=[];autosize=1;strokeColor=none;fillColor=none;fontSize=6;" vertex="1" parent="1">
                    <mxGeometry x="560" y="539" width="70" height="20" as="geometry"/>
                </mxCell>
                <mxCell id="96" value="PROJECT_NAME" style="text;html=1;align=left;verticalAlign=middle;resizable=0;points=[];autosize=1;strokeColor=none;fillColor=none;fontSize=6;" vertex="1" parent="1">
                    <mxGeometry x="560" y="589" width="70" height="20" as="geometry"/>
                </mxCell>
                <mxCell id="97" value="PROJECT_NAME" style="text;html=1;align=left;verticalAlign=middle;resizable=0;points=[];autosize=1;strokeColor=none;fillColor=none;fontSize=6;" vertex="1" parent="1">
                    <mxGeometry x="560" y="639" width="70" height="20" as="geometry"/>
                </mxCell>
            </root>
        </mxGraphModel>
    </diagram>
</mxfile>